<?xml version="1.0" encoding="utf-8"?>
<!-- Generator: Adobe Illustrator 24.3.0, SVG Export Plug-In . SVG Version: 6.00 Build 0)  -->
<svg version="1.1" id="Слой_1" xmlns="http://www.w3.org/2000/svg" xmlns:xlink="http://www.w3.org/1999/xlink" x="0px" y="0px"
	 viewBox="0 0 833.5 384.5" style="enable-background:new 0 0 833.5 384.5;" xml:space="preserve">
<style type="text/css">
	.st0{fill:#F2F2F2;}
</style>
<g>
	<path class="st0" d="M739.9,382.9c-17.7,0-37.7-1.3-59.8-4c-85.7-10.3-193.7-39.3-304.1-81.8C265.6,254.7,166,203.8,95.6,154
		C25,104.1-8,61,2.9,32.8C13.7,4.6,67-5.2,152.9,5C238.6,15.3,346.6,44.3,457,86.8c110.4,42.5,210,93.3,280.4,143.1
		c70.6,49.9,103.5,93,92.7,121.2C822.1,372.1,790.7,382.9,739.9,382.9z M92.9,2.1c-50.2,0-81.2,10.6-89.1,31.1
		c-22.1,57.5,145,175.5,372.6,263c110.3,42.5,218.2,71.5,303.8,81.7c85.4,10.2,138.3,0.6,149-27.2c10.7-27.7-22.1-70.4-92.3-120
		c-70.4-49.8-169.9-100.6-280.2-143C346.3,45.3,238.4,16.3,152.8,6C130.6,3.4,110.5,2.1,92.9,2.1z"/>
</g>
</svg>
